<svg width="18" height="19" viewBox="0 0 18 19" fill="none" xmlns="http://www.w3.org/2000/svg">
<rect width="17.6087" height="17.6087" fill="black" fill-opacity="0" transform="translate(0.304199 0.978027)"/>
<path fill-rule="evenodd" clip-rule="evenodd" d="M5.54053 0.978027H12.6455C15.5327 0.978027 17.8818 3.32715 17.8818 6.21436V13.3193C17.8818 16.207 15.5332 18.5557 12.6455 18.5557H5.54053C2.65332 18.5557 0.304199 16.207 0.304199 13.3193V6.21436C0.304199 3.32715 2.65332 0.978027 5.54053 0.978027ZM12.646 16.7876C14.561 16.7876 16.1138 15.2349 16.1138 13.3198V6.21484C16.1138 4.29932 14.561 2.74658 12.646 2.74658H5.54102C3.62549 2.74658 2.07275 4.29932 2.07275 6.21484V13.3198C2.07275 15.2349 3.62549 16.7876 5.54102 16.7876H12.646Z" fill="white"/>
<path fill-rule="evenodd" clip-rule="evenodd" d="M4.54688 9.76709C4.54688 7.26025 6.58643 5.2207 9.09326 5.2207C11.6001 5.2207 13.6396 7.26025 13.6396 9.76709C13.6396 12.2739 11.6001 14.313 9.09326 14.313C6.58643 14.313 4.54688 12.2739 4.54688 9.76709ZM6.31543 9.76709C6.31543 11.3013 7.55908 12.5449 9.09326 12.5449C10.6274 12.5449 11.8711 11.3013 11.8711 9.76709C11.8711 8.23291 10.6274 6.98926 9.09326 6.98926C7.55908 6.98926 6.31543 8.23291 6.31543 9.76709Z" fill="white"/>
<path d="M13.648 6.34428C14.2496 6.34428 14.7374 5.85655 14.7374 5.25491C14.7374 4.65326 14.2496 4.16553 13.648 4.16553C13.0463 4.16553 12.5586 4.65326 12.5586 5.25491C12.5586 5.85655 13.0463 6.34428 13.648 6.34428Z" fill="white"/>
</svg>
