<svg xmlns="http://www.w3.org/2000/svg" viewBox="0 0 64.72 70.04"><defs><style>.cls-1{fill:#fff;}</style></defs><title>КХЛ_Светлый</title><g id="Слой_2" data-name="Слой 2"><g id="Layer_5" data-name="Layer 5"><path class="cls-1" d="M43.86,20.1A4.7,4.7,0,0,1,43.47,22l0,.05A3.22,3.22,0,0,1,41,23.86l1.68,2.75s5-.06,5.23-6.47V16.81h3v9.56h4V13.59H43.86Z"/><polygon class="cls-1" points="22.53 13.79 18.27 13.79 14.16 18.35 14.16 13.79 10.19 13.79 10.19 26.36 14.16 26.36 14.16 23.33 15.7 21.57 18.92 26.36 23.13 26.36 18.09 18.86 22.53 13.79"/><polygon class="cls-1" points="34.92 56.57 39.36 56.57 34.87 50.29 39.38 43.99 34.94 43.99 32.65 47.19 30.36 43.99 25.92 43.99 30.43 50.29 25.94 56.57 30.38 56.57 32.65 53.39 34.92 56.57"/><path class="cls-1" d="M5.19,41.58a56.53,56.53,0,0,0,17,22.65A37.11,37.11,0,0,0,32,69.94l.32.1.35-.11a36.92,36.92,0,0,0,9.82-5.7,56.51,56.51,0,0,0,17-22.65c5.54-12.92,5.2-35.69,5.19-35.88V5l-.63-.33C63.72,4.47,55,0,32.36,0S1,4.47.64,4.66L0,5v.69C0,5.9-.32,28.71,5.19,41.58ZM45.61,5.4c9.2.84,13.49,2.39,14.33,2.73l0,.23a80.73,80.73,0,0,1-2.73,25.29H41.09l-.1-.17.07.12L34.71,23.21,45.62,5.35l-.11.21ZM30.47,63.31A43.23,43.23,0,0,1,16.84,52a48.87,48.87,0,0,1-6.11-10.43H23.5L32.6,26.8l0,0v.06l9,14.75H54.41a47.24,47.24,0,0,1-7.8,12.48,45,45,0,0,1-8.31,7.19A42,42,0,0,1,33,64.14l-.44.17s-.77-.31-2.1-1ZM8,33.65A80.47,80.47,0,0,1,5.23,8.35V8.13c.84-.34,5.11-1.88,14.28-2.73L30.43,23.25l-6.34,10.4ZM32.6,19.72,23.68,5.09c2.65-.16,5.6-.25,8.92-.25s6.28.1,8.92.25Z"/></g></g></svg>