<svg xmlns="http://www.w3.org/2000/svg" width="73" height="40" fill="none" fill-rule="evenodd" xmlns:v="https://vecta.io/nano"><path d="M72.501 18.822c-.191-2.77-2.192-5.57-6.453-9.017v-.002c.2-.461.302-2.355-1.822-3.49C58.879 3.461 47.397.459 38.771 0c.084.233.286.884.429 1.369-10.28-.478-20.762.038-28.524.804C8.078 2.429 0 3.552 0 3.552l18.251 7.862a191.84 191.84 0 0 0-5.914 1.44c-2.031.532-8.046 2.596-8.046 2.596l7.296 1.602 18.249 4.016-4.343 14.271 6.391-6.646 3.139-2.95-.839 9.761c-.101 1.121.117 2.285.762 2.966.615.648 1.689.958 2.635.853.772-.087 1.729-.626 2.429-1.207 2.939-2.446 10.3-9.058 16.526-15.14.35-.053.699-.102 1.05-.14 4.273-.477 8.411.209 9.118 2.361.464 1.414-.013 2.284-.444 3.637.733-.703 2.626-2.459 3.365-3.392 1.204-1.517 3.065-3.873 2.876-6.62z" fill="#000"/><path d="M39.126 7.845l.084-.01-.657-1.373c3.501-.423 11.608 0 14.844 2.087s6.176 2.802 8.389 2.304c-.197.573-.991 1.255-.991 1.255-.77.166-1.587.217-2.51.077-.915 1.525-3.166 1.337-6.717 3.141-3.793 1.928-9.445 5.118-14.323 8.657l-.492 5.752 7.038-2.58-1.421-1.217 6.008-1.39c.973-1.587 8.418-8.857 9.596-9.74.48-.098.88-.179 1.198-.204 1.547-1.386 3.279-2.689 5.136-3.661a2.38 2.38 0 0 0 .076-.309c.108-.651.061-1.595-.786-2.042C49.281 1.04 22.797 3.478 8.535 4.644l13.45 5.962c6.437-1.331 12.389-2.233 17.141-2.761z" fill="#bfbd9c"/><path d="M42.37 25.938l1.422 1.217-7.04 2.58-.476 5.683c-.133 1.47 1.104 1.924 2.277.95 2.614-2.178 8.701-7.516 14.374-12.872L42.37 25.938z" fill="#6f7757"/><path d="M54.925 13.05c-2.671.43-3.957-1.468-4.194-3.471l-2.777-.331c-.043 2.511 1.641 5.248 5.697 4.63 1.505-.228 2.228-.744 2.557-1.277-.307.197-.717.359-1.283.449z" fill="#fefefe"/><path d="M61.589 14.817s.27-.744 1.36-1.25c1.636.728 2.377 1.728 2.377 1.728l-3.737-.478zm2.715-3.874c-5.582 2.92-10.073 8.837-11.628 10.99 4.608-1.508 14.124-2.329 15.661 2.375 2.525-3.322 5.073-6.21-4.033-13.366z" fill="#f2f2d9"/><path d="M31.119 14.648l11.66-1.31-6.299 4.684.135-1.911-5.497-1.463zm17.679-.12c-1.912-1.084-2.524-3.203-2.315-5.185-3.06.235-19.495 1.545-34.354 5.533 4.799.845 20.38 4.512 20.38 4.512s-1.705 5.112-2.584 8.366c5.686-5.047 9.446-8.019 18.874-13.225z" fill="red"/></svg>