<svg id="Слой_1" data-name="Слой 1" xmlns="http://www.w3.org/2000/svg" viewBox="0 0 144.64 195.94"><defs><style>.cls-1{fill:#fff;}</style></defs><title>мхл монохром RU</title><path class="cls-1" d="M594.68,207.19V316c0,46.5-40.78,63.28-66,73.92-25.17-10.64-66-27.42-66-73.92V207.19H594.68m6.36-6.36H456.4V316c0,21.95,8.54,40.43,25.37,54.9,13.92,12,31.16,19.25,43.75,24.57l3.2,1.35,3.2-1.35c12.59-5.32,29.84-12.6,43.75-24.57C592.51,356.38,601,337.9,601,316V200.83Z" transform="translate(-456.4 -200.83)"/><path class="cls-1" d="M535.31,258.93a57.42,57.42,0,0,1,45.62,33.15H546.08Zm-23.92,33.15,10.77-33.15a57.43,57.43,0,0,0-45.63,33.15Zm17.34,53.37-28.19,20.49a57.35,57.35,0,0,0,56.39,0ZM489.9,358.21l10.77-33.14-28.21-20.5a57.46,57.46,0,0,0,17.44,53.64ZM586.14,316A57.64,57.64,0,0,0,585,304.57l-28.21,20.5,10.77,33.14A57.22,57.22,0,0,0,586.14,316Zm-51-37.63L516.73,335a5.45,5.45,0,0,1-2,2.72l-15.39,11.18-4.3,13.23h0l23.45-17a6.78,6.78,0,0,0,2.47-3.41l17.37-53.44Zm-30.72,55-2,6.05,7.7-5.59a2.79,2.79,0,0,0,1-1.37l1.68-5.18Zm78.74-35.24H541.56l-12.85,39.55h0l33.64,24.45L549.5,322.54Zm-54.44-39.55h0s-6.79,20.88-12.85,39.55H474.27l38.84,28.22,18.81-57.88Z" transform="translate(-456.4 -200.83)"/><path class="cls-1" d="M508,251V216.06h-9.26a1.45,1.45,0,0,0-1.22.66l-7.73,11.9L482,216.72a1.45,1.45,0,0,0-1.22-.66h-9.26V251h9.94V231.69l8.27,12.83L498,231.69V251Z" transform="translate(-456.4 -200.83)"/><path class="cls-1" d="M577.4,251h8.48V216.06h-27.5a1.46,1.46,0,0,0-1.44,1.27l-1.39,11.33c-.69,5.58-1.23,10-2.45,11.64-.41.55-1.27,1.2-4.32,1.51l2,9.4c12-1.74,12.91-9.57,14.36-21.38l.63-5.1h10.2v24.81A1.46,1.46,0,0,0,577.4,251Z" transform="translate(-456.4 -200.83)"/><path class="cls-1" d="M522.47,250.39l6.24-8.9,6.27,8.9a1.43,1.43,0,0,0,1.18.62h11.07L534.6,233.09l.1-.14,11.84-16.87H535.48a1.45,1.45,0,0,0-1.19.61l-5.61,8-5.63-8a1.45,1.45,0,0,0-1.19-.61H510.8l12,17-.11.14L510.21,251h11.07A1.47,1.47,0,0,0,522.47,250.39Z" transform="translate(-456.4 -200.83)"/></svg>