<svg width="13" height="19" viewBox="0 0 13 19" fill="none" xmlns="http://www.w3.org/2000/svg">
<rect width="11.7391" height="18.9632" fill="black" fill-opacity="0" transform="translate(0.326172)"/>
<path d="M5.23342 13.5853C3.71786 13.4383 2.35136 13.091 1.18142 12.2396C1.03625 12.1336 0.886374 12.0315 0.753901 11.9132C0.241822 11.4556 0.190225 10.9315 0.595424 10.3914C0.942066 9.92922 1.52396 9.80557 2.1288 10.071C2.24591 10.1224 2.3575 10.1866 2.46438 10.2556C4.64476 11.6495 7.64005 11.688 9.82862 10.3182C10.0454 10.1635 10.2772 10.0374 10.5459 9.97303C11.0682 9.84825 11.5553 10.0268 11.8356 10.452C12.1558 10.9376 12.1517 11.4116 11.7572 11.7886C11.1519 12.3666 10.424 12.7848 9.61527 13.0767C8.85053 13.3525 8.0129 13.4914 7.18386 13.5836C7.30897 13.7103 7.36793 13.7726 7.44615 13.8458C8.57186 14.8982 9.70249 15.9462 10.8245 17.0018C11.2068 17.3615 11.2866 17.8075 11.0762 18.2258C10.846 18.6831 10.3309 18.9839 9.82575 18.9517C9.50573 18.9311 9.25614 18.7829 9.03439 18.5751C8.18489 17.7797 7.31941 16.9989 6.4871 16.1885C6.24488 15.9528 6.12838 15.9974 5.91462 16.202C5.05999 17.0207 4.19145 17.8267 3.31778 18.6282C2.92548 18.9881 2.45865 19.0529 2.00369 18.8473C1.52007 18.6292 1.21234 18.1698 1.23609 17.7082C1.25247 17.396 1.41749 17.1575 1.64784 16.9435C2.76188 15.9085 3.87285 14.8707 4.98424 13.834C5.05774 13.765 5.12633 13.6918 5.23342 13.5853Z" fill="white"/>
<path fill-rule="evenodd" clip-rule="evenodd" d="M1.229 4.95557C1.21338 7.67383 3.44141 9.92383 6.15918 9.93311C8.9043 9.94238 11.1479 7.74365 11.1621 5.03076C11.1758 2.25391 8.96875 0.00732422 6.21875 0C3.47461 -0.0078125 1.24463 2.20703 1.229 4.95557ZM6.19873 2.53662C7.54785 2.53809 8.62402 3.6123 8.62891 4.96191C8.6333 6.31152 7.55957 7.39307 6.21143 7.39795C4.85889 7.40283 3.77344 6.33594 3.76318 4.99121C3.75293 3.62939 4.83887 2.53516 6.19873 2.53662Z" fill="white"/>
</svg>
