<svg width="19" height="16" viewBox="0 0 19 16" fill="none" xmlns="http://www.w3.org/2000/svg">
<rect width="18.587" height="14.6739" fill="black" fill-opacity="0" transform="translate(0.260742 0.93457)"/>
<path d="M17.8851 2.60086C17.2608 2.87772 16.5891 3.06497 15.8848 3.1486C16.6039 2.71773 17.1558 2.03598 17.4163 1.22229C16.7434 1.62148 15.9978 1.91106 15.2049 2.06715C14.5696 1.39059 13.6645 0.967773 12.6622 0.967773C10.7393 0.967773 9.17972 2.52736 9.17972 4.4503C9.17972 4.72326 9.21063 4.98895 9.27036 5.24399C6.37609 5.0988 3.80985 3.71244 2.09209 1.60486C1.79238 2.11909 1.62045 2.71774 1.62045 3.35586C1.62045 4.56379 2.23571 5.63018 3.16965 6.25454C2.59905 6.23662 2.0617 6.08001 1.5924 5.81848C1.59214 5.83328 1.59214 5.84808 1.59214 5.86263C1.59214 7.55 2.79306 8.9574 4.38589 9.2771C4.09397 9.3571 3.78569 9.39943 3.46858 9.39943C3.24367 9.39943 3.02577 9.37787 2.81332 9.33736C3.25639 10.7206 4.54224 11.7275 6.06651 11.7558C4.87442 12.69 3.373 13.2466 1.74095 13.2466C1.46046 13.2466 1.18257 13.2302 0.910645 13.1978C2.45102 14.1862 4.28201 14.7626 6.24857 14.7626C12.6542 14.7626 16.1572 9.45605 16.1572 4.85363C16.1572 4.70274 16.1539 4.55236 16.1471 4.40329C16.8281 3.91243 17.4184 3.29924 17.8851 2.60086Z" fill="white"/>
</svg>
