<svg width="22" height="14" viewBox="0 0 22 14" fill="none" xmlns="http://www.w3.org/2000/svg">
<rect width="21.5217" height="12.2981" fill="black" fill-opacity="0" transform="translate(0.347656 0.913086)"/>
<path fill-rule="evenodd" clip-rule="evenodd" d="M10.9351 12.622H12.1331C12.1331 12.622 12.495 12.5823 12.6797 12.3832C12.8498 12.2003 12.8443 11.857 12.8443 11.857C12.8443 11.857 12.8209 10.2495 13.567 10.0128C14.3024 9.7796 15.2468 11.5664 16.2478 12.2534C17.0047 12.7733 17.5799 12.6593 17.5799 12.6593L20.2564 12.622C20.2564 12.622 21.6565 12.5358 20.9926 11.435C20.9382 11.3449 20.606 10.6206 19.0026 9.13232C17.3244 7.57464 17.5492 7.82659 19.5707 5.13216C20.8019 3.49123 21.2941 2.48942 21.1404 2.06034C20.9937 1.65168 20.0882 1.75969 20.0882 1.75969L17.0747 1.77847C17.0747 1.77847 16.8513 1.74799 16.6856 1.84703C16.5237 1.94417 16.4195 2.17054 16.4195 2.17054C16.4195 2.17054 15.9425 3.44035 15.3064 4.52024C13.9645 6.79894 13.4279 6.9192 13.2086 6.77771C12.6985 6.44795 12.8258 5.45294 12.8258 4.74607C12.8258 2.53785 13.1607 1.61712 12.1736 1.37878C11.846 1.2996 11.605 1.24736 10.7672 1.23893C9.69196 1.22777 8.78185 1.24219 8.26652 1.49468C7.9237 1.66256 7.65923 2.03667 7.82031 2.05817C8.01947 2.08483 8.47058 2.17979 8.70974 2.50547C9.01856 2.92557 9.00768 3.86915 9.00768 3.86915C9.00768 3.86915 9.18507 6.46863 8.59329 6.79159C8.18707 7.01306 7.62985 6.56086 6.4335 4.49358C5.8205 3.43463 5.35769 2.26413 5.35769 2.26413C5.35769 2.26413 5.26844 2.04538 5.10928 1.92838C4.9161 1.78663 4.64619 1.74146 4.64619 1.74146L1.78252 1.76024C1.78252 1.76024 1.35263 1.77221 1.19482 1.95913C1.05443 2.12537 1.18367 2.46928 1.18367 2.46928C1.18367 2.46928 3.42563 7.71449 5.96416 10.3578C8.29183 12.7812 10.9351 12.622 10.9351 12.622Z" fill="white"/>
</svg>
