<svg width="25" height="31" viewBox="0 0 25 31" fill="none" xmlns="http://www.w3.org/2000/svg">
<rect width="24.1402" height="30.2171" fill="black" fill-opacity="0"/>
<path fill-rule="evenodd" clip-rule="evenodd" d="M1.84478 18.5855L1.79199 15.9958L4.96826 15.3506C5.3554 15.9548 5.42285 15.7289 5.38473 16.7672C5.36713 17.254 5.23515 17.779 4.7747 17.9608C4.1676 18.1984 2.5516 18.4271 1.84478 18.5855ZM1.80078 14.3006L1.80958 12.4147C2.23191 12.1801 4.18812 11.7871 4.73363 11.7842C5.36419 12.5966 5.21755 13.5468 4.40515 13.7668C3.71886 13.9516 2.5076 14.1979 1.80078 14.3006ZM0.0322613 11.0391L0 20.6618L5.85983 19.4505C6.46106 19.2804 7.15614 17.7407 7.16494 17.1805C7.34971 14.5673 6.67809 14.755 6.3936 14.3562C6.94204 13.6523 6.97724 12.7812 6.87459 11.6902C6.81887 11.1036 6.51972 10.6813 6.12965 10.3118C5.93021 10.1241 5.5988 10.0742 5.32311 10.0537C4.6075 9.8777 0.797734 10.8367 0.0322613 11.0391Z" fill="#FEFEFE"/>
<path fill-rule="evenodd" clip-rule="evenodd" d="M16.5234 15.7171C16.7141 16.1512 17.1335 16.6585 17.4473 17.0691C18.0984 16.7348 18.5236 16.2421 18.8902 15.6203C19.6293 14.3563 20.0575 10.1036 20.3948 8.42311L22.3099 7.95679L22.3393 15.8989L24.14 15.5265L24.1371 5.9126C23.2983 5.94486 21.4594 6.42585 20.5561 6.62528C18.3477 7.11213 18.9137 6.60768 18.509 8.92463C18.2919 10.1623 18.0778 11.397 17.8696 12.6317C17.5793 14.3621 17.5705 14.849 16.5234 15.7171Z" fill="#FEFEFE"/>
<path fill-rule="evenodd" clip-rule="evenodd" d="M11.9952 11.491C11.9747 11.4734 11.9424 11.4177 11.9336 11.4382L9.99796 8.91597L8.21479 9.27671C8.47582 9.85155 9.22369 10.7637 9.5991 11.2652C9.93344 11.711 10.7488 12.7375 10.9834 13.2449L8.60193 17.5356C8.37024 17.9403 7.94204 18.5944 7.80713 19.0108C8.33797 18.9375 8.9656 18.7791 9.53164 18.6618C10.2326 18.5152 10.0977 18.5005 10.6021 17.5737C10.8983 17.0312 11.875 15.1776 12.1712 14.8755L14.2418 17.6001L16.0807 17.257L13.6318 13.852C13.2212 13.2947 13.0012 13.2654 13.3385 12.6642C14.2887 10.966 15.3387 9.27378 16.1716 7.59326C15.6554 7.64605 15.1128 7.80149 14.5967 7.90708C13.6728 8.09185 13.8635 8.14464 13.4705 8.84852C12.9631 9.75477 12.4704 10.6405 11.9952 11.491Z" fill="#FEFEFE"/>
<path fill-rule="evenodd" clip-rule="evenodd" d="M2.34626 8.38794V2.08819H21.794V4.08252L24.1226 3.56634V0H0.0175781V8.90412L2.34626 8.38794Z" fill="#FEFEFE"/>
<path fill-rule="evenodd" clip-rule="evenodd" d="M12.0567 27.2958L5.0267 22.0666L2 22.7382L12.0538 30.2169L24.1225 21.2542V17.8374L21.7938 18.3536V20.0664L12.0567 27.2958Z" fill="#FEFEFE"/>
</svg>
