<svg width="25" height="29" viewBox="0 0 25 29" fill="none" xmlns="http://www.w3.org/2000/svg">
<rect width="25" height="28.8591" fill="black" fill-opacity="0"/>
<path d="M19.1273 4.69818C19.2951 4.69818 19.2951 4.69818 19.2951 4.69818C19.6307 6.37603 20.134 7.8861 20.4696 9.56395C21.1407 9.56395 21.8119 9.73173 22.3152 9.73173C21.8119 7.55053 21.1407 5.36932 20.6374 3.02032C20.134 3.02032 19.4629 3.02032 18.9595 2.85254C18.624 2.85254 18.2884 2.85254 17.9528 2.85254C17.785 2.85254 17.785 2.85254 17.6172 2.85254C17.2817 5.03375 17.1139 7.04717 16.7783 9.22838C17.4495 9.22838 17.9528 9.39616 18.624 9.39616C18.7917 7.8861 18.9595 6.37603 19.1273 4.69818Z" fill="#FEFEFE"/>
<path d="M12.5839 9.06041C12.9195 8.38927 13.2551 7.55034 13.4228 6.8792H13.5906C13.9262 7.55034 14.094 8.38927 14.4296 9.22819C15.1007 9.22819 15.7718 9.22819 16.443 9.22819C15.9396 8.0537 15.4363 7.04699 15.1007 5.87249C15.4363 4.86578 15.7718 3.85907 16.1074 2.68457C15.6041 2.68457 14.9329 2.68457 14.2618 2.68457C14.094 3.35571 13.7584 4.19464 13.5906 5.03356H13.4228C13.0873 4.19464 12.9195 3.35571 12.5839 2.68457C12.0806 2.68457 11.4094 2.68457 10.7383 2.68457C11.2416 3.69128 11.5772 4.86578 11.9128 5.87249C11.5772 7.04699 11.0739 8.0537 10.7383 9.22819C11.4094 9.22819 11.9128 9.06041 12.5839 9.06041Z" fill="#FEFEFE"/>
<path fill-rule="evenodd" clip-rule="evenodd" d="M23.7256 4.9834C23.834 5.79004 23.9268 6.58643 23.9932 7.38232C24.3286 9.396 24.6641 11.2417 24.832 12.7515C25.3354 17.6177 23.6577 21.6445 20.1343 24.6646C17.7852 26.6777 13.7583 28.3555 12.416 28.8589C11.0737 28.3555 7.04688 26.6777 4.69775 24.6646C1.17432 21.6445 -0.335938 17.6177 0.16748 12.7515C0.16748 11.3823 0.443848 9.73682 0.745605 7.94043L0.838867 7.38232C1.17432 5.36914 1.34229 3.35547 1.67773 1.17432V1.00684H2.01318C3.85889 0.670898 7.04688 0 12.416 0C17.3877 0 20.4888 0.575195 22.3862 0.926758L22.8188 1.00684H23.1543V1.17432C23.3569 2.49316 23.5596 3.75049 23.7256 4.9834ZM12.9907 27.7676C14.7217 27.0132 17.8398 25.6533 19.6304 24.1611C22.9863 21.1411 24.4961 17.4497 23.9932 12.9194C23.8252 11.2417 23.4897 9.396 23.3218 7.55029C22.9863 5.70459 22.6509 3.85889 22.4829 1.67773C20.6372 1.34229 17.4492 0.838867 12.4155 0.838867C7.38232 0.838867 4.19434 1.34229 2.34863 1.67773C2.25488 2.89307 2.10938 4.00439 1.96973 5.06982C1.85889 5.9165 1.75195 6.7334 1.67773 7.55029C1.3418 9.396 1.00635 11.2417 0.838379 12.9194C0.50293 17.4497 1.84521 21.1411 5.20117 24.1611C7.38232 25.8389 10.9058 27.3491 12.4155 28.02L12.9907 27.7676Z" fill="#FEFEFE"/>
<path d="M22.8189 11.7448C22.8189 11.7448 18.2887 10.5703 12.4162 10.5703C7.04705 10.5703 2.85241 11.577 2.18127 11.577C2.68463 15.9394 6.54369 18.4562 11.5772 17.2817C15.2685 16.275 16.9464 14.7649 16.7786 13.7582C16.443 12.7515 12.7517 13.0871 8.22154 14.9327C8.55711 14.5972 10.235 13.7582 11.4095 13.4227C15.2685 12.0804 18.6242 12.2482 19.1276 13.926L20.1343 16.7784C20.6376 18.4562 18.2887 20.6374 14.4296 21.9797C11.2417 23.1542 8.38933 22.8186 7.04705 21.8119C8.7249 22.3153 12.584 21.8119 14.933 19.9663H14.7652C11.5772 21.4764 8.55711 21.4764 6.3759 20.6374C4.02691 19.6307 2.68463 17.2817 1.8457 15.6039C2.18127 18.624 3.52356 21.3086 5.87255 23.322C7.71819 24.8321 10.9061 26.1743 12.4162 26.8455C14.094 26.1743 17.1142 24.8321 18.9598 23.322C21.9799 20.6374 23.3222 17.2817 22.9866 12.9193C22.9866 12.5837 22.8189 12.0804 22.8189 11.7448Z" fill="#FEFEFE"/>
<path d="M4.36254 9.56377C4.69811 8.72484 5.03368 7.88591 5.36926 7.04699H5.53704C5.53704 7.88591 5.36926 8.72484 5.36926 9.39598C6.0404 9.39598 6.71154 9.39598 7.21489 9.22819C7.38268 8.55705 7.38268 7.71813 7.38268 7.04699C7.38268 6.8792 7.55046 6.8792 7.55046 6.8792C7.88603 7.71813 8.05382 8.55705 8.38939 9.22819C8.89275 9.22819 9.56389 9.22819 10.235 9.22819C9.89946 8.0537 9.3961 7.04699 9.06053 5.87249C9.56389 4.86578 9.89946 3.69128 10.4028 2.68457C9.73167 2.68457 9.22832 2.68457 8.55717 2.68457C8.2216 3.5235 7.88603 4.36242 7.71825 5.03356C7.55046 5.20135 7.55046 5.20135 7.38268 5.20135C7.55046 4.36242 7.55046 3.5235 7.55046 2.85236C7.04711 2.85236 6.37597 2.85236 5.70483 2.85236C5.70483 3.69128 5.70483 4.53021 5.70483 5.20135C5.53704 5.20135 5.53704 5.20135 5.36926 5.20135C5.20147 4.53021 5.03368 3.69128 4.8659 3.02014C4.19476 3.02014 3.52362 3.18793 3.02026 3.18793C3.35583 4.19464 3.52362 5.36913 3.85919 6.37585C3.35583 7.55034 2.85248 8.55705 2.34912 9.73155C3.02026 9.73155 3.6914 9.56377 4.36254 9.56377Z" fill="#FEFEFE"/>
</svg>
