<svg width="920.825" height="920.825" xmlns="http://www.w3.org/2000/svg" version="1.1" xml:space="preserve">
 <g>
  <title>Layer 1</title>
  <g id="svg_29">
   <ellipse stroke="null" ry="348.38711" rx="348.38711" id="svg_26" cy="368.61978" cx="468.47703" fill="#e92525"/>
   <g stroke="null" id="svg_1">
    <g stroke="null" id="svg_2">
     <path stroke="null" d="m644.86475,466.49868l10.54053,-78.54253c-10.54053,4.09168 -24.46115,7.78309 -41.45053,10.9408c-39.67154,7.42729 -92.28524,11.51898 -148.19009,11.51898s-108.56303,-4.09168 -148.19009,-11.51898c-16.90043,-3.15771 -30.7321,-6.80465 -41.22815,-10.85141l10.76291,78.4091c0.44475,2.40164 2.17927,5.78173 4.04721,7.38282c14.18747,11.9197 44.78614,26.24014 104.78267,32.60049l0,-64.93323c0,-6.13797 4.98118,-11.1187 11.1187,-11.1187l117.32457,0c6.13752,0 11.1187,4.98073 11.1187,11.1187l0,65.06666c60.26338,-6.182 90.63968,-20.28096 105.27189,-32.73391c1.91242,-1.55706 3.64693,-4.93715 4.09168,-7.33879z" id="svg_3" fill="#ffffff"/>
     <path stroke="null" d="m664.12235,323.42319c-1.28977,0.66712 -2.66849,1.33424 -4.13616,1.95689c-10.94125,4.84775 -26.41804,9.16226 -46.03143,12.85322c-39.67154,7.42729 -92.28524,11.51853 -148.19009,11.51853s-108.56303,-4.09124 -148.19009,-11.51853c-19.61339,-3.69141 -35.09063,-8.00547 -46.03143,-12.85322c-1.42319,-0.6222 -2.80191,-1.28977 -4.09168,-1.95689l6.76017,49.14467c0.84502,0.39983 1.73452,0.84458 2.75744,1.28932c9.87341,4.35853 24.728,8.49513 43.05162,11.91925c38.87099,7.29387 90.63968,11.2966 145.74397,11.2966s106.87298,-4.00273 145.74397,-11.2966c18.32362,-3.42412 33.22269,-7.56072 43.05162,-11.91925c1.0674,-0.48922 2.04584,-0.93397 2.93534,-1.37872l6.62675,-49.05528z" id="svg_4" fill="#ffffff"/>
     <path stroke="null" d="m276.96907,313.19398c9.87341,4.35853 24.728,8.49469 43.05162,11.91925l0,0c0.44475,-0.26729 0.93397,-0.48967 1.51214,-0.62265c32.42214,-7.56072 86.14772,-12.05268 143.69813,-12.05268c58.30693,0 112.43234,4.58091 144.76553,12.31952c0.40027,0.0885 0.80055,0.26685 1.15679,0.44475c0.13342,0 0.22237,-0.04492 0.3558,-0.04492c18.32362,-3.42456 33.22269,-7.56072 43.05162,-11.91925c8.00547,-3.55799 11.07423,-6.5378 12.0082,-8.09442c0.26685,-0.44475 0.3558,-0.75607 0.3558,-0.97845c0,-0.97845 -2.22374,-4.58091 -12.364,-9.07286c-4.35853,-1.91242 -9.69551,-3.82483 -15.87751,-5.60383l0,-6.93807l0,-6.93807l0,-8.62811l33.80086,-20.10262c2.09032,-1.24529 2.09032,-3.29114 0,-4.53643l-37.71464,-22.14846c-0.84502,-0.3558 -1.77899,-0.57817 -2.75744,-0.57817c-3.69141,0 -6.67122,2.97981 -6.67122,6.67122l0,46.03143l0,6.84912l0,6.84912c-4.35853,-1.02292 -8.98391,-1.95689 -13.83167,-2.89086c-37.18139,-6.98255 -86.10369,-10.9408 -138.53905,-11.2966l0,-6.67122l0,-6.67122l0,-6.67122l33.80086,-20.10262c2.09032,-1.24529 2.09032,-3.29114 0,-4.53643l-37.75912,-22.10398c-0.84458,-0.3558 -1.77899,-0.57817 -2.75744,-0.57817c-3.69141,0 -6.67122,2.97981 -6.67122,6.67122l0,47.3212l0,6.67122l0,6.67122c-52.79116,0.26685 -102.20313,4.26958 -139.606,11.2966c-4.49196,0.84502 -8.71706,1.73452 -12.76427,2.62401l0,-6.84912l0,-6.84912l0,-5.15908l33.80086,-20.10262c2.09032,-1.24529 2.09032,-3.29114 0,-4.53643l-37.75912,-22.10398c-0.84502,-0.3558 -1.77899,-0.57817 -2.75744,-0.57817c-3.69141,0 -6.67122,2.97981 -6.67122,6.67122l0,49.01125l0,6.8936l0,6.93807c-6.62675,1.86794 -12.364,3.86931 -16.94491,5.91515c-10.14115,4.49285 -12.36489,8.09531 -12.36489,9.07331c0,0.22237 0.08895,0.5337 0.3558,0.97845c1.02292,1.64557 4.09168,4.58091 12.09715,8.13889z" id="svg_5" fill="#ffffff"/>
     <path stroke="null" d="m581.71051,329.73862c-31.17729,-4.58091 -72.53887,-7.16045 -116.43507,-7.16045c-43.58532,0 -84.81347,2.57954 -115.99032,7.11597c33.97876,4.40301 74.27294,6.76017 116.47954,6.76017c42.0287,-0.04447 82.05604,-2.35672 115.94585,-6.7157z" id="svg_6" fill="#ffffff"/>
     <path stroke="null" d="m409.32612,443.77205l0,63.95479l0,12.80875l-6.67122,2.22374l-6.67122,2.22374l-8.53872,2.80236c-2.31269,0.75563 -4.22511,3.38009 -4.22511,5.8262l0,8.31679c0,2.44611 2.00137,4.44748 4.44748,4.44748l156.15064,0c2.44611,0 4.44748,-2.00137 4.44748,-4.44748l0,-8.31679c0,-2.44611 -1.91242,-5.07013 -4.22511,-5.8262l-8.53916,-2.80236l-6.67122,-2.22374l-6.67122,-2.22374l0,-12.7198l0,-64.04374l-16.27778,0l0,57.32804l-80.27704,0l0,-57.32804l-16.27778,0z" id="svg_7" fill="#ffffff"/>
    </g>
   </g>
   <g id="svg_8"/>
   <g id="svg_9"/>
   <g id="svg_10"/>
   <g id="svg_11"/>
   <g id="svg_12"/>
   <g id="svg_13"/>
   <g id="svg_14"/>
   <g id="svg_15"/>
   <g id="svg_16"/>
   <g id="svg_17"/>
   <g id="svg_18"/>
   <g id="svg_19"/>
   <g id="svg_20"/>
   <g id="svg_21"/>
   <g id="svg_22"/>
   <ellipse ry="0.80645" rx="8.06452" id="svg_24" cy="161.3617" cx="352.34799" stroke="null" fill="#C97A86"/>
   <rect transform="rotate(-46.3205 468.477 683.942)" stroke="null" id="svg_27" height="146.72232" width="149.64504" y="610.58121" x="393.65451" fill="#e92525"/>
   <ellipse ry="34.67742" rx="34.67742" id="svg_28" cy="854.91009" cx="469.28347" stroke="null" fill="#e92525"/>
  </g>
 </g>

</svg>