<?xml version="1.0" standalone="no"?>
<!DOCTYPE svg PUBLIC "-//W3C//DTD SVG 20010904//EN"
 "http://www.w3.org/TR/2001/REC-SVG-20010904/DTD/svg10.dtd">
<svg version="1.0" xmlns="http://www.w3.org/2000/svg"
 width="700.000000pt" height="700.000000pt" viewBox="0 0 700.000000 700.000000"
 preserveAspectRatio="xMidYMid meet">
<metadata>
Created by potrace 1.14, written by Peter Selinger 2001-2017
</metadata>
<g transform="translate(0.000000,700.000000) scale(0.100000,-0.100000)"
fill="#000000" stroke="none">
<path d="M3734 5323 c7 -21 16 -50 20 -65 l6 -28 -162 7 c-325 14 -1181 7
-1533 -12 -219 -11 -297 -16 -355 -20 -178 -13 -219 -16 -270 -20 -30 -3 -84
-7 -120 -10 -74 -5 -162 -13 -235 -21 -27 -4 -66 -8 -85 -10 -73 -7 -214 -24
-239 -29 -9 -1 -41 -6 -72 -9 -31 -4 -65 -8 -75 -10 -11 -2 -44 -7 -75 -10
-31 -4 -65 -8 -76 -10 -11 -3 -46 -7 -79 -10 -32 -4 -68 -9 -79 -11 -11 -3
-40 -7 -65 -10 -25 -3 -54 -7 -65 -9 -11 -3 -33 -5 -50 -6 l-30 -1 30 -14 c36
-17 79 -36 240 -105 66 -28 134 -58 150 -65 17 -7 95 -41 175 -75 80 -34 163
-70 185 -80 22 -10 68 -29 102 -44 57 -24 147 -63 198 -86 51 -23 545 -235
584 -250 35 -14 41 -19 25 -23 -19 -6 -182 -45 -218 -52 -251 -53 -1075 -309
-1045 -325 8 -4 28 -10 44 -13 17 -3 103 -21 191 -41 89 -19 172 -37 185 -40
13 -2 115 -25 226 -50 111 -25 212 -47 225 -50 13 -2 127 -27 253 -55 127 -28
239 -53 250 -55 11 -3 94 -21 185 -41 91 -20 172 -38 180 -40 8 -2 47 -10 85
-19 39 -9 81 -18 95 -20 14 -2 117 -25 229 -50 112 -25 206 -46 208 -46 8 0 1
-32 -28 -125 -61 -199 -87 -281 -107 -350 -48 -161 -234 -773 -247 -815 -14
-43 -4 -34 188 165 330 342 638 647 675 669 14 8 13 -37 -3 -174 -2 -19 -7
-71 -10 -115 -3 -44 -7 -91 -10 -105 -2 -14 -7 -70 -10 -125 -4 -55 -8 -111
-10 -125 -11 -88 -19 -229 -19 -310 1 -115 26 -183 86 -234 62 -54 167 -79
256 -61 41 8 126 51 177 90 40 30 225 189 281 240 6 5 39 35 73 65 73 64 80
70 191 170 45 41 91 82 101 91 17 14 143 131 233 214 18 17 88 82 155 145 68
63 140 130 160 149 27 26 343 327 371 354 13 13 162 28 310 31 281 6 506 -55
599 -161 67 -75 78 -181 35 -323 -13 -41 -22 -75 -21 -77 2 -1 67 61 145 138
299 296 437 543 427 769 -3 47 -6 92 -8 100 -28 114 -89 235 -175 350 -64 85
-256 280 -350 355 l-62 50 0 63 c0 82 -34 156 -98 213 -70 62 -272 156 -552
256 -115 41 -462 147 -513 157 -12 2 -49 12 -82 20 -196 53 -612 137 -795 161
-25 3 -56 8 -70 10 -14 2 -52 7 -85 10 -33 4 -71 8 -85 10 -14 2 -63 6 -110
10 -47 3 -104 8 -127 11 l-42 4 13 -37z"/>
</g>
</svg>
