<svg width="31" height="32" viewBox="0 0 31 32" fill="none" xmlns="http://www.w3.org/2000/svg">
<ellipse cx="14.8145" cy="11.4291" rx="4.55714" ry="4.71429" fill="white"/>
<path d="M14.9761 1.66406C9.6164 1.66406 5.25586 6.17497 5.25586 11.7195C5.25586 18.6884 14.9857 30.5926 14.9857 30.5926C14.9857 30.5926 24.6964 18.3457 24.6964 11.7195C24.6964 6.17497 20.336 1.66406 14.9761 1.66406ZM17.9089 14.6637C17.1002 15.5001 16.0383 15.9184 14.9761 15.9184C13.9141 15.9184 12.8518 15.5001 12.0435 14.6637C10.4263 12.9909 10.4263 10.269 12.0435 8.59604C12.8266 7.7856 13.8682 7.33925 14.9761 7.33925C16.084 7.33925 17.1255 7.78578 17.9089 8.59604C19.5261 10.269 19.5261 12.9909 17.9089 14.6637Z" fill="#E80505"/>
</svg>
