<svg xmlns="http://www.w3.org/2000/svg" width="334" height="334" fill="none" xmlns:v="https://vecta.io/nano"><circle cx="167" cy="167" r="167" fill="#f9f9f9"/><g fill-rule="evenodd"><path d="M245.719 131.472c-.492-7.134-5.644-14.345-16.619-23.222v-.006c.516-1.188.778-6.064-4.692-8.987-13.769-7.343-43.341-15.074-65.554-16.257.217.6.736 2.277 1.105 3.525-26.474-1.232-53.47.098-73.46 2.07-6.691.66-27.495 3.553-27.495 3.553l47.004 20.249c-5.017 1.141-10.109 2.372-15.232 3.709-5.23 1.371-20.721 6.686-20.721 6.686l18.789 4.126 46.998 10.343c-1.489 4.637-11.185 36.752-11.185 36.752l16.458-17.115 8.084-7.597-2.16 25.137c-.261 2.888.302 5.886 1.963 7.638 1.584 1.668 4.351 2.466 6.786 2.196 1.989-.223 4.453-1.611 6.255-3.109 7.57-6.298 26.526-23.327 42.56-38.991.9-.137 1.801-.263 2.705-.36 11.004-1.227 21.661.539 23.481 6.081 1.193 3.641-.035 5.882-1.144 9.367 1.889-1.812 6.762-6.334 8.667-8.737 3.099-3.906 7.893-9.974 7.407-17.05z" fill="#000"/><path d="M159.766 103.204l.215-.025-1.69-3.537c9.016-1.09 29.894 0 38.228 5.375s15.905 7.217 21.604 5.934c-.507 1.476-2.551 3.231-2.551 3.231-1.984.429-4.087.559-6.466.199-2.356 3.927-8.154 3.442-17.298 8.089-9.767 4.964-24.323 13.181-36.886 22.295l-1.268 14.814 18.126-6.644-3.658-3.136 15.471-3.581c2.507-4.086 21.679-22.809 24.713-25.083 1.237-.251 2.267-.459 3.084-.524 3.985-3.571 8.446-6.925 13.228-9.429.083-.274.157-.542.196-.795.278-1.676.157-4.108-2.023-5.259-36.872-19.45-105.078-13.171-141.807-10.167l34.638 15.354c16.578-3.428 31.906-5.751 44.144-7.111z" fill="#bfbd9c"/><path d="M168.115 149.8l3.662 3.135-18.13 6.644-1.226 14.636c-.342 3.787 2.843 4.956 5.863 2.446 6.733-5.609 22.408-19.355 37.017-33.149l-27.186 6.288z" fill="#6f7757"/><path d="M200.454 116.61c-6.877 1.108-10.191-3.781-10.8-8.939-2.47-.414-4.933-.654-7.152-.853-.112 6.467 4.226 13.515 14.671 11.925 3.877-.586 5.738-1.917 6.587-3.288-.79.507-1.846.925-3.306 1.155z" fill="#fefefe"/><path d="M217.617 121.161s.695-1.917 3.504-3.22c4.212 1.875 6.12 4.45 6.12 4.45l-9.624-1.23zm6.994-9.979c-14.374 7.52-25.94 22.758-29.946 28.304 11.866-3.885 36.376-5.998 40.333 6.117 6.503-8.555 13.063-15.993-10.387-34.421z" fill="#f2f2d9"/><path d="M139.144 120.725l30.029-3.374-16.222 12.062.348-4.921-14.155-3.767zm45.531-.309c-4.925-2.791-6.5-8.249-5.961-13.354-7.88.606-50.207 3.98-88.475 14.249 12.358 2.175 52.485 11.619 52.485 11.619s-4.391 13.166-6.655 21.544c14.644-12.999 24.327-20.652 48.606-34.058z" fill="red"/></g><path d="M107.092 221.746l-2.752-5.199 4.805-5.152h-2.301l-3.422 3.724-1.913-3.724h-2.068l2.582 4.935-5.101 5.416h2.302l3.717-3.973 2.1 3.973h2.052zm6.187.186c3.344 0 5.941-2.7 5.941-6.13 0-2.84-2.177-4.578-4.961-4.578-3.343 0-5.94 2.7-5.94 6.114 0 2.856 2.177 4.594 4.96 4.594zm.109-1.614c-1.788 0-3.172-1.133-3.172-3.088 0-2.499 1.773-4.392 3.934-4.392 1.773 0 3.173 1.148 3.173 3.088 0 2.499-1.789 4.392-3.935 4.392zm14.737 1.428l-3.312-5.463 5.287-4.888h-2.363l-5.008 4.78 1.058-4.78h-1.82l-2.286 10.351h1.82l.73-3.306 1.198-1.133 2.566 4.439h2.13zm9.659 0l-3.312-5.463 5.287-4.888h-2.364l-5.007 4.78 1.057-4.78h-1.819l-2.286 10.351h1.819l.731-3.306 1.198-1.133 2.566 4.439h2.13zm8.321 0l.343-1.599h-5.288l.638-2.871h5.178l.358-1.598h-5.179l.591-2.685h5.288l.357-1.598h-7.106l-2.286 10.351h7.106zm3.626 0l7.107-7.666-1.711 7.666h1.835l2.286-10.351h-1.866l-6.951 7.464 1.648-7.464h-1.819l-2.286 10.351h1.757zm8.102-12.244l-.637-.621c-.607.636-1.384 1.024-2.209 1.024-.855 0-1.446-.403-1.757-1.024l-.855.621c.451.838 1.337 1.365 2.441 1.365 1.12 0 2.209-.527 3.017-1.365zm10.369 12.244l2.286-10.351h-1.82l-.933 4.236h-5.396l.933-4.236h-1.82l-2.286 10.351h1.82l.995-4.516h5.396l-.995 4.516h1.82zm12.933 0l2.27-10.351h-1.819l-2.271 10.351h1.82zm-8.46-10.351l-2.27 10.351h4.525c3.11 0 4.152-2.142 4.152-3.694 0-1.521-1.088-2.793-3.079-2.793h-2.364l.856-3.864h-1.82zm3.032 5.462c.871 0 1.478.606 1.478 1.366 0 1.055-.793 1.924-2.177 1.924h-2.442l.731-3.29h2.41zm9.394 4.889l7.107-7.666-1.711 7.666h1.835l2.286-10.351h-1.866l-6.951 7.464 1.648-7.464h-1.819l-2.286 10.351h1.757zm8.102-12.244l-.638-.621c-.606.636-1.384 1.024-2.208 1.024-.855 0-1.446-.403-1.757-1.024l-.855.621c.451.838 1.337 1.365 2.441 1.365 1.12 0 2.208-.527 3.017-1.365zm13.772 12.244l-3.313-5.463 5.288-4.888h-2.364l-5.008 4.78 1.058-4.78h-1.82l-2.286 10.351h1.82l.731-3.306 1.197-1.133 2.566 4.439h2.131zm.499.186c2.006 0 3.514-.698 4.976-5.09l1.291-3.849h3.592l-1.928 8.753h1.819l2.271-10.351h-7.045l-1.773 5.323c-1.042 3.057-1.726 3.6-2.846 3.6l-.357 1.614zm13.151 0c1.772 0 2.752-.885 3.67-2.126l6.173-8.411h-2.177l-4.199 6.037-1.524-6.037h-1.959l2.193 7.495-.078.124c-.684.932-1.104 1.304-1.866 1.304-.498 0-.933-.264-1.229-.59l-.964 1.49c.249.341 1.026.714 1.96.714zm10.974-10.537l-2.27 10.351h4.556c3.079 0 4.121-2.142 4.121-3.694 0-1.521-1.119-2.793-3.063-2.793h-2.38l.514-2.266h5.287l.342-1.598h-7.107zm3.033 5.462c.871 0 1.477.606 1.477 1.366 0 1.055-.793 1.924-2.13 1.924h-2.489l.731-3.29h2.411z" fill="#202124"/><path d="M173.123 251.511l3.768-19.669h18.377l-2.922 4.397h-10.534l-2.307 12.033c-.385 1.851-1.999 3.162-3.845 3.162l-2.537.077zm-87.131-19.745h-12.38l-.077.308c1.23.463 3.076 1.466 2.076 3.008L65 251.435h4.383c1.384 0 2.614-.694 3.383-1.851l.846-1.311h10.842l.769 3.162h6.152l-5.383-19.669zm-9.996 12.496l4.767-7.714h.692l1.922 7.714h-7.382zm62.59-12.496h-12.303l-.077.308c1.154.463 2.768 1.311 2.307 2.7l-10.842 16.661h4.383c1.384 0 2.614-.694 3.383-1.851l.846-1.311h10.842l.769 3.162h6.152l-5.46-19.669zm-9.996 12.496l4.767-7.714h.692l1.923 7.714h-7.382zm81.588-12.496h-12.303l-.154.308c1.23.463 2.999 1.389 2.153 2.931l-10.688 16.43h4.383c1.384 0 2.614-.694 3.306-1.851l.846-1.311h10.842l.769 3.162h6.152l-5.306-19.669zm-9.996 12.496l4.767-7.714h.692l1.923 7.714h-7.382zm65.897 3.238l2.999-15.658h-22.453l-.154.308c1.23.463 2.691 1.312 2.153 2.854l-4.998 12.419h-3.614l-1.385 7.174h2.538c1.845 0 3.46-1.312 3.845-3.163h18.378l-.616 3.163h5.844l1.385-7.174h-3.922v.077zm-5.844 0h-10.304l4.691-11.647h7.843l-2.23 11.647zm-145.101-6.479l-.385-.077.077-.309.385-.077c.768-.231 1.537-.617 2.076-1.234.922-.926 1.384-2.16 1.307-3.471 0-3.317-3.153-4.011-5.844-4.011H94.603l-.154.308c1.23.463 2.461 1.235 2.153 3.009l-3.153 16.352h16.302c2.922 0 4.998-.771 6.305-2.237 1.077-1.234 1.615-2.854 1.538-4.473 0-1.852-.769-3.24-2.46-3.78zm-4.46 5.554c-.615.694-1.461 1.08-2.384 1.002h-8.228l.846-4.473h8.074c.538 0 2.23 0 2.23 1.697.077.617-.154 1.311-.538 1.774zm.769-7.714c-.539.617-1.308.926-2.076.849H101.6l.769-4.011h7.69c1.384 0 1.999.54 1.999 1.619 0 .54-.231 1.157-.615 1.543zm55.447-7.095l-1.461 7.405h-11.15l1.461-7.405h-8.458c-.077.077-.077.231-.154.308 1.231.463 2.461 1.234 2.153 3.008l-3.152 16.353h2.614c1.846 0 3.46-1.311 3.845-3.162l.923-4.629h11.149l-1.538 7.868h5.844l3.845-19.669-5.921-.077zm69.204 0H218.87l-.154.308c1.23.463 2.46 1.234 2.076 3.008l-3.153 16.353h2.538c1.845 0 3.46-1.311 3.845-3.162l.615-3.394h8.996c3.307 0 5.614-.849 7.152-2.623 1.23-1.543 1.845-3.548 1.768-5.554.154-3.394-1.922-4.936-6.459-4.936zm-.538 8.022c-.615.848-1.615 1.234-2.615 1.157h-7.382l.923-4.937h7.228c1.615 0 2.461.617 2.461 1.851a3.21 3.21 0 0 1-.615 1.929z" fill="#26292e"/></svg>
